<?xml version="1.0" encoding="UTF-8"?>
<svg id="Laag_1" data-name="Laag 1" xmlns="http://www.w3.org/2000/svg" viewBox="0 0 464 90">
  <defs>
    <style>
      .cls-1 {
        fill: #18f291;
      }

      .cls-1, .cls-2, .cls-3 {
        stroke-width: 0px;
      }

      .cls-2, .cls-3 {
        fill: #fff;
      }

      .cls-3 {
        isolation: isolate;
        opacity: .5;
      }
    </style>
  </defs>
  <path class="cls-3" d="m452.49,23.6v-8.98h3.2c.93,0,1.7.1,2.37.5.73.53,1.1,1.26,1.1,2.2,0,1.57-.83,2.33-1.87,2.7.77,1.17,1.5,2.43,2.2,3.59h-2.33l-1.97-3.33h-.7v3.33h-2,0Zm2-7.22v2.13h1.07c1.03,0,1.6-.3,1.6-1.1s-.57-1.03-1.6-1.03c0,0-1.07,0-1.07,0Zm8.84,2.66c.01,4.29-3.45,7.77-7.74,7.79-.02,0-.04,0-.06,0-4.3,0-7.77-3.49-7.77-7.78h0c0-4.3,3.4-7.79,7.8-7.79s7.77,3.49,7.77,7.79h0Zm-1.53,0c0-3.49-2.87-6.32-6.24-6.32s-6.24,2.83-6.24,6.32,2.73,6.32,6.2,6.32,6.27-2.83,6.27-6.32h0Z"/>
  <path class="cls-2" d="m341.79,10.45c6.43,0,15.44,1.22,22.73,7.05,2.68,2.16,2.88,5.93.86,8.75-1.91,2.63-5.75,2.26-8.82.66-4.03-1.97-8.73-3.95-14.77-3.95-12.47,0-22.54,9.88-22.54,22.12s10.07,22.12,22.54,22.12c4.99,0,10.84-1.5,15.06-3.86v-12.99c0-3.39,2.78-6.22,6.33-6.22s6.33,2.83,6.33,6.22v15.07c0,1.55-.04,2.8-.67,4.13-.58,1.13-1.53,1.98-2.78,2.82-6.33,4.42-15.92,7.34-24.27,7.34-19.47,0-35.29-15.53-35.29-34.63s15.82-34.63,35.29-34.63h0Z"/>
  <path class="cls-2" d="m152.88,12.14c14.38,0,20.91,11.76,20.91,22.68,0,4.24-1.35,8.75-3.74,12.61-1.82,2.92-5.75,3.86-8.73,1.97-3.07-1.78-3.93-5.65-2.11-8.56,1.16-1.88,1.92-4.05,1.92-6.02,0-2.45-.57-10.17-8.25-10.17h-17.84v47.15c0,3.39-2.88,6.22-6.43,6.22s-6.33-2.82-6.33-6.21V18.35c0-3.39,2.88-6.21,6.33-6.21h24.27,0Z"/>
  <path class="cls-2" d="m192.11,12.14c3.55,0,6.43,2.82,6.43,6.21v47.15h7.1c3.55,0,6.33,2.83,6.33,6.31s-2.78,6.22-6.33,6.22h-13.52c-3.45,0-6.33-2.82-6.33-6.21V18.35c0-3.39,2.87-6.21,6.33-6.21Z"/>
  <path class="cls-2" d="m241.44,12.14c3.55,0,6.43,2.82,6.43,6.21v31.91c0,5.18,1.54,16.94,16.5,16.94,12.18,0,16.49-8.75,16.49-16.94v-13.18c0-3.38,2.88-6.21,6.42-6.21s6.33,2.83,6.33,6.21v13.18c0,14.21-9.12,29.45-29.25,29.45-17.46,0-29.25-11.86-29.25-29.45v-31.91c0-3.39,2.87-6.21,6.33-6.21h0Z"/>
  <path class="cls-2" d="m287.29,12.14c3.45,0,6.33,2.82,6.33,6.21s-2.88,6.3-6.33,6.3-6.42-2.82-6.42-6.3,2.88-6.21,6.42-6.21h0Z"/>
  <path class="cls-2" d="m428.49,12.14c2.4,0,4.6,1.31,5.66,3.48,1.05,2.07.86,4.61-.58,6.5l-32.99,43.48h9.3c3.45,0,6.33,2.73,6.33,6.21s-2.88,6.22-6.33,6.22h-21.97c-2.4,0-4.6-1.32-5.66-3.39-1.05-2.17-.86-4.7.58-6.59l32.99-43.39h-26.09c-3.55,0-6.42-2.82-6.42-6.3s2.87-6.21,6.42-6.21h38.75Z"/>
  <path class="cls-2" d="m344.19,44.14c3.45,0,6.33,2.83,6.33,6.21s-2.88,6.31-6.33,6.31-6.42-2.83-6.42-6.31,2.88-6.21,6.42-6.21Z"/>
  <path class="cls-2" d="m147.71,44.8c3.55,0,6.33,2.83,6.33,6.21.01,3.47-2.79,6.29-6.26,6.31-.02,0-.05,0-.07,0-3.45,0-6.33-2.82-6.33-6.31s2.88-6.21,6.33-6.21h0Z"/>
  <path class="cls-2" d="m224.73,65.5c3.47-.03,6.31,2.77,6.33,6.24,0,.02,0,.04,0,.07,0,3.39-2.78,6.22-6.33,6.22s-6.33-2.82-6.33-6.21c-.01-3.47,2.8-6.29,6.27-6.3.02,0,.04,0,.06,0h0Z"/>
  <path class="cls-2" d="m428.98,65.6c3.45,0,6.33,2.73,6.33,6.21s-2.88,6.22-6.33,6.22-6.43-2.82-6.43-6.21,2.88-6.21,6.43-6.21h0Z"/>
  <path class="cls-1" d="m16.12,0h37.43l-2.8,17.59L18.23,53l26.9-3.72-7.13,40.72H0L16.12,0ZM58.91,0h37.68l-15.72,90h-37.43l2.19-12.52,32.81-42.15-26.41,4.28L58.91,0Z"/>
</svg>